# xmcd
#
# Track frame offsets:
# 150
# 15972
# 40765
# 63302
# 83814
# 105137
# 121435
# 138408
# 158865
# 172606
#
# Disc length: 2660 seconds
#
#
# Revision: 0
# Processed by: cddbd v1.5.2PL0 Copyright (c) Steve Scherf et al.
# Submitted via: FreeRIP 2.951 
#
DISCID=680a620a
DTITLE=Allan Olsen - Gæst
DYEAR=2004
DGENRE=Dansk
TTITLE0=Lille Hul
TTITLE1=Seende Kærester
TTITLE2=En Der Er Grim
TTITLE3=I Statsministerens Undergrund
TTITLE4=En Plads I Byen
TTITLE5=Trist Som En Tigger I Bombay
TTITLE6=Lorna
TTITLE7=Talisman
TTITLE8=Namedropping Nobody
TTITLE9=Inden Bay City Rollers Kom Frem
EXTD=
EXTT0=
EXTT1=
EXTT2=
EXTT3=
EXTT4=
EXTT5=
EXTT6=
EXTT7=
EXTT8=
EXTT9=
PLAYORDER=
